<?xml version="1.0" encoding="UTF-8"?>
<!DOCTYPE svg PUBLIC "-//W3C//DTD SVG 1.1//EN" "http://www.w3.org/Graphics/SVG/1.1/DTD/svg11.dtd">
<svg xmlns="http://www.w3.org/2000/svg" version="1.1" width="391px" height="89px" style="shape-rendering:geometricPrecision; text-rendering:geometricPrecision; image-rendering:optimizeQuality; fill-rule:evenodd; clip-rule:evenodd" xmlns:xlink="http://www.w3.org/1999/xlink">
<g><path style="opacity:0.958" fill="#39634f" d="M 69.5,3.5 C 70.3764,3.36912 71.0431,3.70245 71.5,4.5C 75.8333,13.1667 80.1667,21.8333 84.5,30.5C 75.3348,36.5836 66.0015,42.417 56.5,48C 55.5,48.6667 54.5,48.6667 53.5,48C 48.4162,39.9122 43.7496,31.5789 39.5,23C 49.3873,16.2704 59.3873,9.77042 69.5,3.5 Z"/></g>
<g><path style="opacity:0.911" fill="#39634f" d="M 35.5,10.5 C 38.4245,10.4598 41.0912,11.2932 43.5,13C 32.9817,19.1816 23.315,26.5149 14.5,35C 10.7269,34.2948 7.06025,32.9614 3.5,31C 14.341,24.3036 25.0077,17.4703 35.5,10.5 Z"/></g>
<g><path style="opacity:0.896" fill="#000000" d="M 264.5,20.5 C 276.115,22.1638 281.448,28.9972 280.5,41C 280.524,48.3823 278.691,55.2156 275,61.5C 268.466,68.2206 261.133,69.2206 253,64.5C 249.377,59.794 247.877,54.4607 248.5,48.5C 247.829,38.3547 251.162,29.8547 258.5,23C 260.611,22.1553 262.611,21.322 264.5,20.5 Z M 265.5,30.5 C 266.79,31.0577 267.623,32.0577 268,33.5C 268.988,40.6679 268.322,47.6679 266,54.5C 264.333,57.1667 262.667,57.1667 261,54.5C 260.337,48.4518 260.67,42.4518 262,36.5C 262.424,33.9746 263.59,31.9746 265.5,30.5 Z"/></g>
<g><path style="opacity:0.906" fill="#000000" d="M 129.5,21.5 C 132.833,21.5 136.167,21.5 139.5,21.5C 139.823,25.226 139.489,28.8927 138.5,32.5C 132.899,33.6039 127.232,34.2706 121.5,34.5C 121.81,45.2186 121.477,55.8853 120.5,66.5C 116.541,67.6599 112.541,67.8265 108.5,67C 108.043,66.586 107.709,66.086 107.5,65.5C 108.7,51.5082 110.033,37.5082 111.5,23.5C 117.631,22.8714 123.631,22.2047 129.5,21.5 Z"/></g>
<g><path style="opacity:0.91" fill="#000000" d="M 152.5,21.5 C 156.426,21.0466 159.592,22.3799 162,25.5C 165.794,39.3036 168.627,53.3036 170.5,67.5C 166.116,67.8256 161.783,67.4922 157.5,66.5C 156.77,63.8908 156.27,61.2241 156,58.5C 153.071,59.1878 150.237,60.1878 147.5,61.5C 146.907,63.3817 146.24,65.2151 145.5,67C 140.98,67.9284 136.646,67.5951 132.5,66C 136.451,51.148 141.784,36.8146 148.5,23C 150.058,22.79 151.391,22.29 152.5,21.5 Z M 152.5,41.5 C 153.117,41.6107 153.617,41.944 154,42.5C 154.495,44.4727 154.662,46.4727 154.5,48.5C 153.5,48.5 152.5,48.5 151.5,48.5C 151.993,46.1944 152.326,43.861 152.5,41.5 Z M 162.5,58.5 C 164.337,58.6395 164.67,59.3061 163.5,60.5C 162.702,60.0431 162.369,59.3764 162.5,58.5 Z"/></g>
<g><path style="opacity:0.911" fill="#000000" d="M 190.5,21.5 C 197.12,21.389 201.62,24.389 204,30.5C 206.292,45.5637 199.792,53.5637 184.5,54.5C 183.705,58.7853 183.372,63.1186 183.5,67.5C 179.833,67.5 176.167,67.5 172.5,67.5C 172.758,53.8268 173.258,40.1601 174,26.5C 174.674,25.4216 175.674,24.7549 177,24.5C 181.674,23.6682 186.174,22.6682 190.5,21.5 Z M 185.5,33.5 C 187.924,33.1924 190.257,33.5258 192.5,34.5C 194.007,36.9686 193.673,39.1353 191.5,41C 189.35,42.4114 187.016,43.2447 184.5,43.5C 184.616,40.1401 184.949,36.8067 185.5,33.5 Z"/></g>
<g><path style="opacity:0.921" fill="#000000" d="M 236.5,21.5 C 241.362,21.0416 244.529,23.0416 246,27.5C 246.5,40.8292 246.667,54.1625 246.5,67.5C 242.167,67.5 237.833,67.5 233.5,67.5C 233.543,63.1071 233.709,58.7738 234,54.5C 232.765,59.2317 229.932,62.565 225.5,64.5C 222.499,62.7179 220.666,60.0512 220,56.5C 219.501,60.1516 219.335,63.8183 219.5,67.5C 214.968,67.9308 210.635,67.4308 206.5,66C 207.679,52.2468 208.513,38.4134 209,24.5C 210.525,23.2799 212.359,22.6132 214.5,22.5C 218.688,21.8538 221.522,23.5204 223,27.5C 224.333,32.1667 225.667,36.8333 227,41.5C 229.924,34.655 233.09,27.9883 236.5,21.5 Z"/></g>
<g><path style="opacity:0.913" fill="#000000" d="M 285.5,21.5 C 289.167,21.5 292.833,21.5 296.5,21.5C 296.553,27.1956 296.22,32.8623 295.5,38.5C 298.167,38.5 300.833,38.5 303.5,38.5C 304.177,33.1991 304.677,27.8657 305,22.5C 308.73,21.5399 312.563,21.2065 316.5,21.5C 316.2,36.5045 315.7,51.5045 315,66.5C 310.934,67.4637 306.767,67.797 302.5,67.5C 302.75,61.0844 302.75,54.7511 302.5,48.5C 300.5,49.1667 298.5,49.8333 296.5,50.5C 295.812,56.0522 295.146,61.5522 294.5,67C 290.5,67.6667 286.5,67.6667 282.5,67C 282.043,66.586 281.709,66.086 281.5,65.5C 282.702,50.7926 284.035,36.126 285.5,21.5 Z"/></g>
<g><path style="opacity:0.916" fill="#000000" d="M 322.5,21.5 C 325.777,21.2161 328.943,21.5495 332,22.5C 332.275,28.8489 332.275,35.1822 332,41.5C 335.118,34.761 338.618,28.261 342.5,22C 349.964,20.6248 353.631,23.7915 353.5,31.5C 352.933,43.3977 352.266,55.2311 351.5,67C 347.245,67.7961 343.079,67.6295 339,66.5C 339.382,60.5269 339.715,54.5269 340,48.5C 336.818,54.8644 333.651,61.1978 330.5,67.5C 326.635,68.8061 322.802,68.8061 319,67.5C 318.997,52.0338 320.164,36.7005 322.5,21.5 Z"/></g>
<g><path style="opacity:0.906" fill="#000000" d="M 390.5,21.5 C 390.5,24.8333 390.5,28.1667 390.5,31.5C 389.242,43.3318 388.242,55.3318 387.5,67.5C 383.788,67.6584 380.288,67.6584 377,67.5C 376.685,62.1617 376.852,56.8283 377.5,51.5C 376.022,51.238 374.689,51.5713 373.5,52.5C 370.626,57.7486 367.626,62.9152 364.5,68C 361.049,67.8688 357.882,66.7021 355,64.5C 356.862,58.9531 359.696,53.7864 363.5,49C 354.272,40.3546 354.272,31.6879 363.5,23C 372.418,21.5863 381.418,21.0863 390.5,21.5 Z M 371.5,32.5 C 373.833,32.5 376.167,32.5 378.5,32.5C 378.5,35.1667 378.5,37.8333 378.5,40.5C 370.768,41.7957 368.435,39.129 371.5,32.5 Z"/></g>
<g><path style="opacity:0.895" fill="#39634f" d="M 34.5,25.5 C 39.163,33.1574 42.9963,41.1574 46,49.5C 37.3035,45.9016 28.8035,41.9016 20.5,37.5C 25.2382,33.4821 29.9048,29.4821 34.5,25.5 Z"/></g>
<g><path style="opacity:0.883" fill="#39634f" d="M 3.5,37.5 C 6.88913,38.6311 10.2225,39.9645 13.5,41.5C 14.6655,51.1495 14.8321,60.8161 14,70.5C 10.5791,69.0252 7.24576,67.3586 4,65.5C 3.50021,56.1726 3.33355,46.8393 3.5,37.5 Z"/></g>
<g><path style="opacity:0.925" fill="#39634f" d="M 82.5,38.5 C 83.8266,42.7825 84.4933,47.4492 84.5,52.5C 84.3333,57.1667 84.1667,61.8333 84,66.5C 74,72.5 64,78.5 54,84.5C 53.1679,74.8161 53.3345,65.1495 54.5,55.5C 63.897,49.8077 73.2303,44.141 82.5,38.5 Z M 75.5,51.5 C 76.6433,54.9758 76.8099,58.6425 76,62.5C 75,63.1667 74,63.8333 73,64.5C 72.3333,60.8333 72.3333,57.1667 73,53.5C 73.9947,52.9341 74.828,52.2674 75.5,51.5 Z M 63.5,58.5 C 64.7868,59.8714 65.4535,61.7047 65.5,64C 65.1667,65.8333 64.8333,67.6667 64.5,69.5C 63.8333,69.8333 63.1667,70.1667 62.5,70.5C 61.0163,66.2205 61.3497,62.2205 63.5,58.5 Z"/></g>
<g><path style="opacity:0.961" fill="#39634f" d="M 20.5,44.5 C 29.1408,48.1517 37.8075,51.8183 46.5,55.5C 47.6655,65.1495 47.8321,74.8161 47,84.5C 43.5428,83.1047 40.2095,81.4381 37,79.5C 36.5006,73.8431 36.3339,68.1764 36.5,62.5C 35.0695,62.5792 33.7362,62.2458 32.5,61.5C 31.9546,66.9776 31.1213,72.3109 30,77.5C 27.3632,75.7651 24.5299,74.4318 21.5,73.5C 20.5016,63.8563 20.1682,54.1896 20.5,44.5 Z"/></g>
</svg>
